Coordinates
version=1
nRows=12
nColumns=19
inDegrees=yes

Units are S.I. units (second, meters, Newtons, ...)
If the header above contains a line with 'inDegrees', this indicates whether rotational values are in degrees (yes) or radians (no).

endheader
time	pelvis_tilt	pelvis_list	pelvis_rotation	pelvis_tx	pelvis_ty	pelvis_tz	hip_flexion_r	hip_adduction_r	hip_rotation_r	knee_angle_r	knee_angle_r_beta	ankle_angle_r	hip_flexion_l	hip_adduction_l	hip_rotation_l	knee_angle_l	knee_angle_l_beta	ankle_angle_l
     11.44666667	      0.03069049	     -9.77266923	     -3.01459114	      2.15448917	      1.07202554	      1.03046731	     14.16716078	     12.52825133	     -6.90393858	      8.96777191	      0.15651715	      1.25469621	    -14.92118259	    -17.53630229	    -24.78089186	     45.42191860	      0.79276203	    -14.95681913
     11.45333333	      0.98363740	    -10.37177955	     -3.22530339	      2.15404704	      1.06868448	      1.03145005	     13.42043537	     13.07885839	     -7.48166939	     10.82957648	      0.18901177	      1.19938407	    -15.37711607	    -18.39174446	    -24.50968687	     47.83910098	      0.83494982	    -13.63068316
     11.46000000	      1.80527802	    -10.98774497	     -3.39042924	      2.15337135	      1.06489666	      1.03236251	     12.85244399	     13.60374723	     -8.10532538	     12.90033402	      0.22515330	      1.27830326	    -15.53888901	    -19.28641814	    -24.06396365	     50.38657177	      0.87941158	    -12.36502096
     11.46666667	      2.14825465	    -11.46392948	     -3.51732177	      2.15236061	      1.06041630	      1.03320046	     12.90224347	     13.94125010	     -8.80614506	     15.24503392	      0.26607604	      1.58760905	    -14.91547714	    -20.05677405	    -23.20947081	     53.12551664	      0.92721518	    -11.10655628
     11.47333333	      3.02938481	    -12.10405795	     -3.68785053	      2.15127987	      1.05639545	      1.03397573	     12.20781927	     14.47096285	     -9.10266853	     17.41626616	      0.30397119	      2.14870189	    -14.97293413	    -20.91463677	    -22.65481266	     55.70981714	      0.97231973	     -9.92786443
     11.48000000	      3.76003098	    -12.71648718	     -3.78128586	      2.14999471	      1.05213702	      1.03463764	     11.68829858	     14.94750787	     -9.39985602	     19.65474725	      0.34304005	      3.02875992	    -14.69956829	    -21.77629693	    -21.92679393	     58.35070490	      1.01841192	     -8.82892620
     11.48666667	      3.54462395	    -13.09265115	     -3.82367129	      2.14834419	      1.04695210	      1.03523605	     12.33674349	     15.14385289	     -9.93776997	     22.15155165	      0.38661751	      4.14578268	    -12.97984104	    -22.45758283	    -20.54785784	     61.24471363	      1.06892190	     -7.80415373
     11.49333333	      3.76734780	    -13.59124147	     -3.89465114	      2.14667149	      1.04236364	      1.03580270	     12.34301429	     15.50499347	    -10.12130696	     24.39928188	      0.42584780	      5.51403261	    -11.81840933	    -23.21236691	    -19.46027007	     63.94004662	      1.11596434	     -6.84657646
     11.50000000	      3.81735234	    -14.05546440	     -3.92992095	      2.14486969	      1.03784815	      1.03628637	     12.47413366	     15.83835354	    -10.24528295	     26.53399679	      0.46310561	      7.07983493	    -10.33191301	    -23.93524667	    -18.24817324	     66.58438454	      1.16211674	     -5.91436189
     11.50666667	      3.74830994	    -14.46541045	     -3.95452057	      2.14295937	      1.03354296	      1.03672100	     12.64925753	     16.13197856	    -10.27813648	     28.51346066	      0.49765377	      8.74238891	     -8.58900986	    -24.57284027	    -16.92102701	     69.15186456	      1.20692772	     -5.01747001
     11.51333333	      3.46707998	    -14.79497574	     -3.97330609	      2.14101008	      1.02943223	      1.03711511	     12.95513656	     16.36476562	    -10.24346881	     30.30478167	      0.52891822	     10.44418582	     -6.49187146	    -25.09944888	    -15.47077946	     71.60897159	      1.24981233	     -4.15714773
     11.52000000	      3.05360803	    -14.98882944	     -4.02962240	      2.13896497	      1.02568917	      1.03750113	     13.29880097	     16.47975061	    -10.10912843	     31.90838404	      0.55690636	     12.09369914	     -4.16923308	    -25.42248837	    -13.97984123	     73.90575931	      1.28989884	     -3.30408543
